<?xml version="1.0" encoding="iso-8859-1"?>
<!-- Uploaded to: SVG Repo, www.svgrepo.com, Generator: SVG Repo Mixer Tools -->
<svg fill="#f2f2f2" height="800px" width="800px" version="1.1" id="Capa_1" xmlns="http://www.w3.org/2000/svg" xmlns:xlink="http://www.w3.org/1999/xlink" 
	 viewBox="0 0 490.1 490.1" xml:space="preserve">
<g>
	<path d="M431.213,469.1V89.7c0-11.5-9.4-20.9-20.9-20.9h-67.3l-1.5-11.5c-1-10.4-9.4-17.7-19.8-17.7h-55.3V20.9
		c0-11.5-9.4-20.9-20.9-20.9s-20.9,9.4-20.9,20.9v18.8h-56.3c-9.4,0-18.8,7.3-19.8,17.7l-1.8,12.5h-67c-11.5,0-20.9,9.4-20.9,20.9
		v378.4c0,11.5,9.4,20.9,20.9,20.9h331.5C422.813,490,432.213,480.6,431.213,469.1z M304.013,80.3l7.3,55.3h-132.4l8.3-55.3H304.013
		z M390.513,449.3h-290.9V111.6h41.3l-5.8,40.7c-1.6,12.9,9.2,24,20.9,24h179.3c11.5,0,23.4-7.6,18.8-26.1l-5.3-39.6h41.8v338.7
		H390.513z"/>
</g>
</svg>
